<mxfile host="app.diagrams.net" agent="Mozilla/5.0 (Windows NT 10.0; Win64; x64) AppleWebKit/537.36 (KHTML, like Gecko) Chrome/131.0.0.0 Safari/537.36" version="25.0.3">
  <diagram id="C5RBs43oDa-KdzZeNtuy" name="Page-1">
    <mxGraphModel dx="983" dy="390" grid="1" gridSize="10" guides="1" tooltips="1" connect="1" arrows="1" fold="1" page="1" pageScale="1" pageWidth="827" pageHeight="1169" math="0" shadow="0">
      <root>
        <mxCell id="WIyWlLk6GJQsqaUBKTNV-0" />
        <mxCell id="WIyWlLk6GJQsqaUBKTNV-1" parent="WIyWlLk6GJQsqaUBKTNV-0" />
        <mxCell id="Wg8IgjOomajdta90ggUj-4" style="edgeStyle=orthogonalEdgeStyle;rounded=0;orthogonalLoop=1;jettySize=auto;html=1;exitX=0.5;exitY=1;exitDx=0;exitDy=0;exitPerimeter=0;entryX=0.5;entryY=0;entryDx=0;entryDy=0;" edge="1" parent="WIyWlLk6GJQsqaUBKTNV-1" source="Wg8IgjOomajdta90ggUj-0" target="Wg8IgjOomajdta90ggUj-1">
          <mxGeometry relative="1" as="geometry" />
        </mxCell>
        <mxCell id="Wg8IgjOomajdta90ggUj-0" value="START" style="strokeWidth=2;html=1;shape=mxgraph.flowchart.start_1;whiteSpace=wrap;" vertex="1" parent="WIyWlLk6GJQsqaUBKTNV-1">
          <mxGeometry x="364" y="40" width="100" height="60" as="geometry" />
        </mxCell>
        <mxCell id="Wg8IgjOomajdta90ggUj-7" style="edgeStyle=orthogonalEdgeStyle;rounded=0;orthogonalLoop=1;jettySize=auto;html=1;exitX=0.5;exitY=1;exitDx=0;exitDy=0;" edge="1" parent="WIyWlLk6GJQsqaUBKTNV-1" source="Wg8IgjOomajdta90ggUj-1" target="Wg8IgjOomajdta90ggUj-3">
          <mxGeometry relative="1" as="geometry" />
        </mxCell>
        <mxCell id="Wg8IgjOomajdta90ggUj-1" value="READ NUM1,NUM2" style="shape=parallelogram;html=1;strokeWidth=2;perimeter=parallelogramPerimeter;whiteSpace=wrap;rounded=1;arcSize=12;size=0.23;" vertex="1" parent="WIyWlLk6GJQsqaUBKTNV-1">
          <mxGeometry x="326" y="140" width="176" height="50" as="geometry" />
        </mxCell>
        <mxCell id="Wg8IgjOomajdta90ggUj-6" style="edgeStyle=orthogonalEdgeStyle;rounded=0;orthogonalLoop=1;jettySize=auto;html=1;exitX=0.5;exitY=1;exitDx=0;exitDy=0;entryX=0.5;entryY=0;entryDx=0;entryDy=0;" edge="1" parent="WIyWlLk6GJQsqaUBKTNV-1" source="Wg8IgjOomajdta90ggUj-3">
          <mxGeometry relative="1" as="geometry">
            <mxPoint x="407" y="290" as="targetPoint" />
          </mxGeometry>
        </mxCell>
        <mxCell id="Wg8IgjOomajdta90ggUj-3" value="PRINT &quot;NUM1 IS &quot; + NUM1&lt;div&gt;PRINT &quot;NUM2 IS &quot; + NUM2&lt;/div&gt;" style="shape=parallelogram;html=1;strokeWidth=2;perimeter=parallelogramPerimeter;whiteSpace=wrap;rounded=1;arcSize=12;size=0.23;" vertex="1" parent="WIyWlLk6GJQsqaUBKTNV-1">
          <mxGeometry x="287" y="210" width="254" height="50" as="geometry" />
        </mxCell>
        <mxCell id="Wg8IgjOomajdta90ggUj-10" style="edgeStyle=orthogonalEdgeStyle;rounded=0;orthogonalLoop=1;jettySize=auto;html=1;exitX=0.5;exitY=1;exitDx=0;exitDy=0;entryX=0.5;entryY=0;entryDx=0;entryDy=0;" edge="1" parent="WIyWlLk6GJQsqaUBKTNV-1" source="Wg8IgjOomajdta90ggUj-8" target="Wg8IgjOomajdta90ggUj-9">
          <mxGeometry relative="1" as="geometry" />
        </mxCell>
        <mxCell id="Wg8IgjOomajdta90ggUj-8" value="TEMP NUM = NUM1&lt;div&gt;NUM1 = NUM2&lt;/div&gt;&lt;div&gt;NUM2 = TEMP NUM&amp;nbsp;&lt;/div&gt;" style="rounded=1;whiteSpace=wrap;html=1;absoluteArcSize=1;arcSize=14;strokeWidth=2;" vertex="1" parent="WIyWlLk6GJQsqaUBKTNV-1">
          <mxGeometry x="304" y="290" width="216" height="60" as="geometry" />
        </mxCell>
        <mxCell id="Wg8IgjOomajdta90ggUj-12" style="edgeStyle=orthogonalEdgeStyle;rounded=0;orthogonalLoop=1;jettySize=auto;html=1;exitX=0.5;exitY=1;exitDx=0;exitDy=0;" edge="1" parent="WIyWlLk6GJQsqaUBKTNV-1" source="Wg8IgjOomajdta90ggUj-9" target="Wg8IgjOomajdta90ggUj-11">
          <mxGeometry relative="1" as="geometry" />
        </mxCell>
        <mxCell id="Wg8IgjOomajdta90ggUj-9" value="PRINT NUM1&amp;nbsp;&lt;div&gt;PRINT NUM2&lt;/div&gt;" style="shape=parallelogram;html=1;strokeWidth=2;perimeter=parallelogramPerimeter;whiteSpace=wrap;rounded=1;arcSize=12;size=0.23;" vertex="1" parent="WIyWlLk6GJQsqaUBKTNV-1">
          <mxGeometry x="287" y="380" width="233" height="60" as="geometry" />
        </mxCell>
        <mxCell id="Wg8IgjOomajdta90ggUj-11" value="END" style="strokeWidth=2;html=1;shape=mxgraph.flowchart.terminator;whiteSpace=wrap;" vertex="1" parent="WIyWlLk6GJQsqaUBKTNV-1">
          <mxGeometry x="353.5" y="480" width="100" height="60" as="geometry" />
        </mxCell>
      </root>
    </mxGraphModel>
  </diagram>
</mxfile>
